<svg width="54" height="18" viewBox="0 0 54 18" fill="none" xmlns="http://www.w3.org/2000/svg">
<path d="M8.83205 10.0318L12.936 -0.000196457H17.688L8.83205 17.8558L4.78504e-05 -0.000196457H4.72805L8.83205 10.0318ZM19.4485 -0.000196457H23.5765V16.7998H19.4485V-0.000196457ZM25.456 3.6238V-0.000196457H38.752V3.6238H34.12V16.7998H30.064V3.6238H25.456ZM40.4691 -0.000196457H44.5251V10.9918C44.5251 11.8398 44.7491 12.5278 45.1971 13.0558C45.6451 13.5838 46.3171 13.8478 47.2131 13.8478C48.1251 13.8478 48.8051 13.5838 49.2531 13.0558C49.7011 12.5278 49.9251 11.8398 49.9251 10.9918V-0.000196457H53.9811V11.2798C53.9811 12.3358 53.8051 13.2558 53.4531 14.0398C53.1171 14.8238 52.6371 15.4718 52.0131 15.9838C51.4051 16.4798 50.6851 16.8558 49.8531 17.1118C49.0371 17.3678 48.1571 17.4958 47.2131 17.4958C46.2691 17.4958 45.3891 17.3678 44.5731 17.1118C43.7571 16.8558 43.0371 16.4798 42.4131 15.9838C41.8051 15.4718 41.3251 14.8238 40.9731 14.0398C40.6371 13.2558 40.4691 12.3358 40.4691 11.2798V-0.000196457Z" fill="url(#paint0_linear_12_51)"/>
<defs>
<linearGradient id="paint0_linear_12_51" x1="56.024" y1="-0.751918" x2="0.00271558" y2="16.6795" gradientUnits="userSpaceOnUse">
<stop stop-color="#E2525C"/>
<stop offset="1" stop-color="#1F8FE0"/>
</linearGradient>
</defs>
</svg>
